<svg xmlns="http://www.w3.org/2000/svg" width="39.485" height="33.245" viewBox="0 0 39.485 33.245"><defs><style>.a{fill:#f40000;stroke:#f40000;stroke-linecap:square;stroke-linejoin:bevel;}</style></defs><g transform="translate(0.489 0.554)"><path class="a" d="M19.253,32.118c-.164.077-.253.117-.253.117V32C16.768,30.93,7.718,26.342,3.351,20.245-1.654,13.259.431,8.672.431,8.2A11.974,11.974,0,0,1,8.616.383c5.44-1.663,9.6,2.567,10.637,3.762,1.041-1.2,5.2-5.425,10.638-3.762A11.977,11.977,0,0,1,38.075,8.2c0,.469,2.085,5.056-2.92,12.042C30.788,26.342,21.737,30.93,19.506,32v.237S19.417,32.2,19.253,32.118Z" transform="translate(0 0)"/></g></svg>